<?xml version="1.0" encoding="UTF-8"?>
<svg version="1.1" xmlns="http://www.w3.org/2000/svg" width="2000" height="2000">
<path d="M0 0 C1.65784515 -0.00208466 1.65784515 -0.00208466 3.34918213 -0.00421143 C17.54974211 -0.01313026 31.64665482 0.34387038 45.8125 1.3125 C57.66973694 2.11678711 69.20530074 2.11396405 81.0625 1.3125 C116.40796939 -1.07333959 152.12837217 -0.73711242 187.4375 2.1875 C188.17669678 2.2483075 188.91589355 2.30911499 189.67749023 2.37176514 C228.40130275 5.60635951 266.69083551 11.99175909 304.4375 21.1875 C306.32637939 21.64479492 306.32637939 21.64479492 308.25341797 22.11132812 C372.0063626 37.77677239 434.35004947 63.02577426 490.4375 97.1875 C491.36127441 97.74566406 492.28504883 98.30382812 493.23681641 98.87890625 C525.8844697 118.631338 556.23443336 141.50336754 584.4375 167.1875 C585.27667969 167.93386719 586.11585937 168.68023437 586.98046875 169.44921875 C593.95026312 175.71122018 600.61546516 182.25940949 607.25 188.875 C608.14565674 189.76606445 609.04131348 190.65712891 609.96411133 191.57519531 C614.99702186 196.61983976 619.80721162 201.77321718 624.4375 207.1875 C625.45887951 208.3442683 626.48227952 209.4992561 627.5078125 210.65234375 C635.0465804 219.19546615 642.10258717 228.02070262 648.91601562 237.15136719 C650.32555346 239.03768707 651.74722936 240.91414564 653.171875 242.7890625 C666.36591618 260.29836563 677.94742365 278.95217556 688.4375 298.1875 C688.9334668 299.09435547 689.42943359 300.00121094 689.94042969 300.93554688 C736.26755167 386.21077591 754.70285982 487.23351925 728.31835938 632.19580078 C712.08489337 685.04184199 683.47647454 733.81029355 645.9921875 774.38671875 C644.06779888 776.49648425 642.20344535 778.62859047 640.34765625 780.796875 C635.96009156 785.82587227 631.24865019 790.52652546 626.5222168 795.2331543 C625.00258332 796.7474258 623.48837483 798.2669743 621.97460938 799.78710938 C616.63423527 805.13152029 611.19547377 810.29132696 605.4375 815.1875 C604.24572393 816.23247129 603.05560168 817.27933191 601.8671875 818.328125 C593.60278985 825.57371893 585.17338633 832.51916426 576.4375 839.1875 C575.71498047 839.74131348 574.99246094 840.29512695 574.24804688 840.86572266 C554.35577995 856.07721057 533.92169348 870.31438002 512.4375 883.1875 C511.52581055 883.73535156 510.61412109 884.28320312 509.67480469 884.84765625 C485.66114522 899.24749936 461.10421839 912.61007247 435.96484375 924.94677734 C434.05989523 925.88195396 432.15651658 926.82032939 430.25390625 927.76025391 C415.47840465 935.048881 400.63732829 942.05523085 385.5 948.5625 C370.67069531 954.9525526 356.67235704 961.40917356 344.4375 972.1875 C343.17679688 973.25097656 343.17679688 973.25097656 341.890625 974.3359375 C331.65158191 983.17874744 324.7192168 993.32957238 318.4375 1005.1875 C317.74333984 1006.47527344 317.74333984 1006.47527344 317.03515625 1007.7890625 C284.89655057 1072.47699087 301.76844824 1187.55241953 301.4375 1238.1875 C141.7175 1238.1875 -18.0025 1238.1875 -182.5625 1238.1875 C-182.60375 1193.328125 -182.645 1148.46875 -182.6875 1102.25 C-182.70570801 1088.1412915 -182.72391602 1074.03258301 -182.74267578 1059.49633789 C-182.75170898 1042.12585449 -182.75170898 1042.12585449 -182.75338745 1033.96653748 C-182.7552335 1028.32797015 -182.76253134 1022.68944394 -182.77365112 1017.05088806 C-183.01653873 889.68103093 -183.01653873 889.68103093 -155.5625 840.1875 C-155.20929688 839.54973633 -154.85609375 838.91197266 -154.4921875 838.25488281 C-147.50734707 825.81156546 -139.19556953 814.82037257 -129.515625 804.328125 C-127.93347392 802.59408742 -126.45303119 800.84050618 -125 799 C-122.42353129 796.02715149 -119.68473343 793.55301494 -116.69140625 791.01171875 C-115.3413373 789.85487068 -114.012498 788.67238185 -112.71484375 787.45703125 C-98.61089668 774.30643249 -82.08393864 763.98184902 -65.5625 754.1875 C-64.5739502 753.59855957 -63.58540039 753.00961914 -62.56689453 752.40283203 C-50.63605641 745.32189749 -38.58262045 738.5697928 -26.24609375 732.22265625 C-25.32941075 731.74974435 -25.32941075 731.74974435 -24.39420891 731.26727867 C-7.67766126 722.64533424 9.17683183 714.29725436 26.02709961 705.94067383 C62.33502415 687.92877134 98.26272199 669.68769541 128.4375 642.1875 C129.18 641.52878906 129.9225 640.87007812 130.6875 640.19140625 C160.16856574 612.61432601 173.08881485 571.12584121 174.56542969 531.77856445 C175.68311172 479.5051564 161.63802112 431.82000727 125.4375 393.1875 C108.53292712 375.77991575 83.36334914 357.87377324 59.4375 352.1875 C53.55434811 352.49210989 48.48868806 353.93437111 43 356 C42.19506104 356.30131836 41.39012207 356.60263672 40.56079102 356.91308594 C17.46913308 365.8225173 -4.40983625 377.46189918 -23.5625 393.1875 C-24.36397461 393.84468018 -24.36397461 393.84468018 -25.18164062 394.51513672 C-35.95684482 403.38902226 -46.59582092 412.4535294 -55.5625 423.1875 C-56.43132813 424.16847656 -57.30015625 425.14945312 -58.1953125 426.16015625 C-90.73158645 462.98037294 -111.53723365 507.17809703 -126.37084961 553.61499023 C-127.24664788 556.24059076 -128.16028874 558.82318167 -129.13697815 561.41078186 C-129.40466287 562.12104554 -129.67234758 562.83130922 -129.94814396 563.56309605 C-130.15088145 564.09914935 -130.35361895 564.63520266 -130.5625 565.1875 C-146.41201781 565.66128797 -162.25953166 566.01048891 -178.11443233 566.22374344 C-185.48182598 566.32553769 -192.84470372 566.46394728 -200.20922852 566.69628906 C-235.18619766 567.77781113 -264.26560839 566.91891307 -294.81341553 547.50712585 C-299.83409289 544.33447094 -305.15360694 541.86997891 -310.5625 539.4375 C-312.3064735 538.6118348 -314.04889665 537.78287899 -315.7890625 536.94921875 C-316.68786133 536.52044434 -317.58666016 536.09166992 -318.51269531 535.64990234 C-324.99880831 532.53976651 -331.46671923 529.39187566 -337.9375 526.25 C-347.63578733 521.5413317 -357.33910633 516.84419035 -367.0625 512.1875 C-377.46043703 507.20747143 -387.83547459 502.18112891 -398.20703125 497.14648438 C-407.1490757 492.80624159 -416.09791564 488.48106409 -425.0625 484.1875 C-435.46042311 479.20744209 -445.83547441 474.181129 -456.20703125 469.14648438 C-465.14907598 464.80624146 -474.09793967 460.48111464 -483.0625 456.1875 C-492.65948627 451.5904523 -502.2389423 446.95806942 -511.8125 442.3125 C-527.0108409 434.93835279 -527.0108409 434.93835279 -542.21679688 427.57992554 C-544.03562724 426.70049339 -545.85376732 425.81964573 -547.671875 424.9387207 C-552.79742065 422.46072429 -557.92755712 420.00292272 -563.109375 417.64453125 C-563.91826172 417.27457031 -564.72714844 416.90460938 -565.56054688 416.5234375 C-567.00547052 415.86676795 -568.45441149 415.21882722 -569.90820312 414.58203125 C-571.49670432 413.8604408 -573.03664196 413.0335414 -574.5625 412.1875 C-582.92036818 387.11389545 -549.10345366 329.74326364 -537.75 306.9375 C-518.58998168 268.76216812 -494.89708299 232.99778884 -467.5625 200.1875 C-467.0871582 199.61306152 -466.61181641 199.03862305 -466.12207031 198.44677734 C-465.66155273 197.89070801 -465.20103516 197.33463867 -464.7265625 196.76171875 C-464.33033691 196.28307373 -463.93411133 195.80442871 -463.52587891 195.3112793 C-453.61645632 183.54839831 -443.02391336 172.4803828 -432.13378906 161.62841797 C-430.2963424 159.79639005 -428.4643835 157.95899395 -426.6328125 156.12109375 C-420.77960692 150.26428498 -414.90967747 144.51436264 -408.5625 139.1875 C-407.55244692 138.31097613 -406.54328517 137.43342375 -405.53515625 136.5546875 C-397.52298853 129.69326064 -389.26051242 123.21960238 -380.82470703 116.88769531 C-379.31489446 115.75297324 -377.80805484 114.6142848 -376.30419922 113.47167969 C-303.54277651 58.20233394 -215.84933882 24.97089043 -64.0625 2.4375 C-63.33546875 2.37824341 -62.6084375 2.31898682 -61.859375 2.25793457 C-41.25462725 0.61176375 -20.66703246 -0.01056657 0 0 Z " fill="#8F5CEF" transform="translate(915.5625,71.8125)"/>
<path d="M0 0 C1.48492008 -0.00299991 2.96983938 -0.00640432 4.45475769 -0.01017761 C8.45533376 -0.01894081 12.45588837 -0.02135256 16.45647311 -0.0219934 C18.96800945 -0.02270869 21.4795405 -0.02485207 23.99107552 -0.02749062 C32.78799912 -0.03672119 41.58490765 -0.04082869 50.38183594 -0.04003906 C58.52394198 -0.03944005 66.66598139 -0.04996302 74.8080706 -0.06578273 C81.84382985 -0.07895545 88.8795676 -0.08421887 95.91533905 -0.08358365 C100.09708606 -0.08333135 104.27877385 -0.08603119 108.46050835 -0.0967617 C130.11929101 -0.14848728 151.51540164 0.08115538 172.83422852 4.39526367 C173.92251953 4.61214844 175.01081055 4.8290332 176.13208008 5.05249023 C200.35041937 10.02634139 223.051187 18.45393362 244.83422852 30.14526367 C245.42075195 30.45786133 246.00727539 30.77045898 246.61157227 31.0925293 C263.8239354 40.3504039 279.14500196 51.93091067 293.55688477 65.09057617 C295.50799012 66.85092165 297.49436395 68.53710691 299.52172852 70.20776367 C302.63987209 72.86181146 305.26631311 75.79227273 307.90844727 78.91479492 C309.24820563 80.46652317 310.62959914 81.98286636 312.04125977 83.46948242 C342.04620313 115.12251638 360.62358378 156.95823654 369.83422852 199.14526367 C370.00293457 199.90661621 370.17164063 200.66796875 370.34545898 201.45239258 C383.48875056 262.83962849 370.09148512 331.31966743 336.13085938 383.80029297 C331.94820048 390.11178006 327.54653652 396.21604096 322.83422852 402.14526367 C322.13040039 403.04116211 321.42657227 403.93706055 320.70141602 404.86010742 C306.16895067 423.01266718 289.66566096 438.52690108 270.83422852 452.14526367 C270.21999023 452.58966797 269.60575195 453.03407227 268.97290039 453.49194336 C252.32294906 465.38084934 233.96798823 474.95297462 214.83422852 482.14526367 C214.03259277 482.44770996 213.23095703 482.75015625 212.4050293 483.06176758 C193.05412863 490.22523031 172.41122817 495.29288735 151.83422852 497.14526367 C150.95698875 497.22621434 150.07974899 497.30716501 149.17592621 497.39056873 C140.62551683 498.12112693 132.13234957 498.29403905 123.55493164 498.29052734 C122.06986407 498.29352812 120.58479726 498.29693272 119.09973145 498.30070496 C115.10334669 498.30945835 111.1069834 498.31187945 107.11058998 498.31252074 C104.60122587 498.31323649 102.09186705 498.31538068 99.58250427 498.31801796 C90.79205993 498.32724459 82.00163066 498.33135645 73.21118164 498.33056641 C65.07643921 498.32996718 56.94176343 498.34049538 48.80703783 498.35631007 C41.77550467 498.36948242 34.74399302 498.37474624 27.71244764 498.374111 C23.53406897 498.37385873 19.35574957 498.37655685 15.17738342 498.38728905 C-6.27550639 498.43857446 -27.57945381 498.37962662 -48.66577148 493.89526367 C-49.70709229 493.67837891 -50.74841309 493.46149414 -51.82128906 493.23803711 C-90.38209026 484.98528021 -126.79757807 468.4861399 -157.16577148 443.14526367 C-157.73602051 442.67652832 -158.30626953 442.20779297 -158.89379883 441.72485352 C-171.88759527 431.02642262 -183.83810255 419.4670091 -194.16577148 406.14526367 C-195.32786133 404.70860352 -195.32786133 404.70860352 -196.51342773 403.24291992 C-227.71834709 364.02659496 -248.10428357 312.7878794 -248.36889648 262.35229492 C-248.3759108 261.45170853 -248.38292511 260.55112213 -248.39015198 259.62324524 C-248.40754958 256.73469986 -248.41400375 253.84635951 -248.41577148 250.95776367 C-248.4167836 249.4772049 -248.4167836 249.4772049 -248.41781616 247.96673584 C-248.40208641 233.49800817 -248.04588233 219.37185147 -245.16577148 205.14526367 C-244.89240967 203.76854492 -244.89240967 203.76854492 -244.61352539 202.36401367 C-243.30192081 195.91227785 -241.7941909 189.52376125 -240.16577148 183.14526367 C-239.98320801 182.41178711 -239.80064453 181.67831055 -239.61254883 180.92260742 C-230.3230772 144.21075279 -210.17134576 109.24649879 -184.45092773 81.61791992 C-182.53673265 79.54666268 -180.71989537 77.43611666 -178.91577148 75.27026367 C-139.27642569 30.00766185 -77.41316938 5.10759497 -18.56168938 0.35193443 C-12.37778889 -0.02440901 -6.19312641 -0.00252869 0 0 Z " fill="#8250E6" transform="translate(912.165771484375,1429.854736328125)"/>
<path d="M0 0 C0.55397461 0.44714355 1.10794922 0.89428711 1.67871094 1.35498047 C20.43324713 16.58977242 34.91614437 34.53269844 46 56 C46.52787109 57.01682861 46.52787109 57.01682861 47.06640625 58.05419922 C70.30227731 103.4220231 71.70026668 159.0579372 56.375 207.1875 C48.91207594 229.13228805 35.94554323 247.50697031 20 264 C19.09701172 264.98033203 19.09701172 264.98033203 18.17578125 265.98046875 C-8.1939599 293.94435042 -47.62789176 310.89451598 -81.47265625 327.75 C-82.14492249 328.0848428 -82.81718872 328.41968559 -83.50982666 328.76467514 C-89.75744295 331.87538412 -96.00757986 334.98100937 -102.26000977 338.08203125 C-118.29247843 346.03607565 -134.22719095 354.08596698 -149.86129761 362.80725098 C-152.70270294 364.39189569 -155.5555413 365.95560743 -158.40625 367.5234375 C-182.55866689 380.97942596 -205.15443873 395.82201056 -226 414 C-226.89460937 414.75925781 -227.78921875 415.51851562 -228.7109375 416.30078125 C-234.90464433 421.66548424 -239.95203795 427.56361852 -245 434 C-245.65613281 434.77859375 -246.31226563 435.5571875 -246.98828125 436.359375 C-286.84951929 483.96919038 -291.07334242 548.52251124 -291.20532227 607.86010742 C-291.21439877 610.6214991 -291.22489126 613.382885 -291.23532104 616.14427185 C-291.25690056 622.05075091 -291.27511095 627.95723228 -291.29092598 633.86372948 C-291.3137959 642.40316516 -291.34191329 650.94257748 -291.37124526 659.48199312 C-291.41871359 673.3420703 -291.46203286 687.20215713 -291.50268555 701.06225586 C-291.5421469 714.51310983 -291.58360867 727.96395525 -291.62768555 741.41479492 C-291.63043505 742.25460382 -291.63318456 743.09441271 -291.63601738 743.95967036 C-291.65754094 750.52910786 -291.67917922 757.09854498 -291.70085371 763.66798198 C-291.80676681 795.77863726 -291.90268862 827.88931528 -292 860 C-333.58 860 -375.16 860 -418 860 C-418.0806627 792.06856439 -418.0806627 792.06856439 -418.09765625 763.50195312 C-418.10157081 756.96557607 -418.10561144 750.42919911 -418.10986328 743.89282227 C-418.11039078 743.07381992 -418.11091828 742.25481757 -418.11146176 741.41099697 C-418.12011296 728.26323841 -418.13585383 715.11549771 -418.15430559 701.96774966 C-418.17314176 688.43117288 -418.18414538 674.8946053 -418.18817699 661.35801595 C-418.19065279 653.77304929 -418.19656285 646.18811988 -418.21146011 638.60316658 C-418.45341355 511.49240387 -418.45341355 511.49240387 -391 462 C-390.64679687 461.36223633 -390.29359375 460.72447266 -389.9296875 460.06738281 C-382.94484707 447.62406546 -374.63306953 436.63287257 -364.953125 426.140625 C-363.37097392 424.40658742 -361.89053119 422.65300618 -360.4375 420.8125 C-357.86103129 417.83965149 -355.12223343 415.36551494 -352.12890625 412.82421875 C-350.7788373 411.66737068 -349.449998 410.48488185 -348.15234375 409.26953125 C-334.04839668 396.11893249 -317.52143864 385.79434902 -301 376 C-300.0114502 375.41105957 -299.02290039 374.82211914 -298.00439453 374.21533203 C-286.07355641 367.13439749 -274.02012045 360.3822928 -261.68359375 354.03515625 C-261.07247175 353.71988165 -260.46134975 353.40460705 -259.83170891 353.07977867 C-243.11516126 344.45783424 -226.26066817 336.10975436 -209.41040039 327.75317383 C-173.10247585 309.74127134 -137.17477801 291.50019541 -107 264 C-106.2575 263.34128906 -105.515 262.68257812 -104.75 262.00390625 C-75.26893426 234.42682601 -62.34868515 192.93834121 -60.87207031 153.59106445 C-59.75438828 101.3176564 -73.79947888 53.63250727 -110 15 C-128.7348175 -4.2922895 -152.87551848 -17.85872659 -178 -27 C-140.12642719 -64.87357281 -33.15232418 -26.96331327 0 0 Z " fill="#6332CD" transform="translate(1151,450)"/>
<path d="M0 0 C1.64181747 -0.00108765 1.64181747 -0.00108765 3.31680298 -0.00219727 C23.05782077 -0.00076295 42.68941471 0.73915247 62.375 2.1875 C58.7441464 4.42560251 55.09058134 4.70034933 50.9375 5.046875 C49.40603657 5.1905416 47.87462606 5.3347732 46.34326172 5.47949219 C45.13086823 5.5903717 45.13086823 5.5903717 43.89398193 5.70349121 C-20.92886156 11.72541416 -86.15208095 27.49150411 -145.625 54.1875 C-146.63385254 54.6323877 -147.64270508 55.07727539 -148.68212891 55.53564453 C-173.67929914 66.58197655 -197.67672547 79.33361685 -220.625 94.1875 C-221.30272461 94.62368652 -221.98044922 95.05987305 -222.67871094 95.50927734 C-238.424243 105.68239818 -253.45516912 116.77262008 -267.87646484 128.74316406 C-270.35589102 130.79123517 -272.86872046 132.79743691 -275.375 134.8125 C-280.82105747 139.27354558 -285.98468189 144.01738439 -291.13525391 148.81103516 C-292.551437 150.11953078 -293.98429295 151.4099131 -295.41796875 152.69921875 C-301.76741057 158.41809531 -307.88479885 164.34262646 -313.9375 170.375 C-314.69047363 171.12338135 -315.44344727 171.8717627 -316.21923828 172.64282227 C-320.89335057 177.32986361 -325.31234737 182.16821449 -329.625 187.1875 C-330.64663299 188.34404444 -331.67002409 189.49903864 -332.6953125 190.65234375 C-340.26038996 199.22634338 -347.29178849 208.10842884 -354.15527344 217.25048828 C-356.20515033 219.95210344 -358.32852332 222.59438221 -360.4375 225.25 C-397.63008869 273.61244081 -425.60406965 330.42023637 -443.5625 388.5625 C-443.84504639 389.4707251 -444.12759277 390.3789502 -444.41870117 391.31469727 C-446.29180366 397.54056597 -447.58396529 403.77176721 -448.625 410.1875 C-436.31271728 416.3779541 -423.94759249 422.45671083 -411.5625 428.5 C-410.60980225 428.96515015 -409.65710449 429.43030029 -408.67553711 429.9095459 C-397.49623753 435.36703494 -386.31021849 440.80738461 -375.07543945 446.14990234 C-366.44312789 450.25929858 -357.84721177 454.44283388 -349.25 458.625 C-339.1781254 463.52414853 -329.10195721 468.41306717 -319 473.25 C-309.44437598 477.82561001 -299.90652643 482.43697477 -290.375 487.0625 C-279.87967693 492.15556545 -269.3814387 497.24239941 -258.875 502.3125 C-257.09996094 503.16908203 -257.09996094 503.16908203 -255.2890625 504.04296875 C-251.734482 505.7580344 -248.17976844 507.47282393 -244.625 509.1875 C-230.07473123 516.2059593 -215.52803971 523.23142267 -200.99432373 530.28408813 C-188.61797062 536.28977202 -176.22994074 542.26998826 -163.82421875 548.21484375 C-156.73264411 551.61339515 -149.64742613 555.02511714 -142.5625 558.4375 C-141.9580304 558.72861664 -141.35356079 559.01973328 -140.73077393 559.31967163 C-137.36208235 560.94207297 -133.99349127 562.56468281 -130.625 564.1875 C-130.625 564.5175 -130.625 564.8475 -130.625 565.1875 C-146.47451781 565.66128797 -162.32203166 566.01048891 -178.17693233 566.22374344 C-185.54432598 566.32553769 -192.90720372 566.46394728 -200.27172852 566.69628906 C-235.24869766 567.77781113 -264.32810839 566.91891307 -294.87591553 547.50712585 C-299.89659289 544.33447094 -305.21610694 541.86997891 -310.625 539.4375 C-312.3689735 538.6118348 -314.11139665 537.78287899 -315.8515625 536.94921875 C-316.75036133 536.52044434 -317.64916016 536.09166992 -318.57519531 535.64990234 C-325.06130831 532.53976651 -331.52921923 529.39187566 -338 526.25 C-347.69828733 521.5413317 -357.40160633 516.84419035 -367.125 512.1875 C-377.52293703 507.20747143 -387.89797459 502.18112891 -398.26953125 497.14648438 C-407.2115757 492.80624159 -416.16041564 488.48106409 -425.125 484.1875 C-435.52292311 479.20744209 -445.89797441 474.181129 -456.26953125 469.14648438 C-465.21157598 464.80624146 -474.16043967 460.48111464 -483.125 456.1875 C-492.72198627 451.5904523 -502.3014423 446.95806942 -511.875 442.3125 C-527.0733409 434.93835279 -527.0733409 434.93835279 -542.27929688 427.57992554 C-544.09812724 426.70049339 -545.91626732 425.81964573 -547.734375 424.9387207 C-552.85992065 422.46072429 -557.99005712 420.00292272 -563.171875 417.64453125 C-563.98076172 417.27457031 -564.78964844 416.90460938 -565.62304688 416.5234375 C-567.06797052 415.86676795 -568.51691149 415.21882722 -569.97070312 414.58203125 C-571.55920432 413.8604408 -573.09914196 413.0335414 -574.625 412.1875 C-582.98286818 387.11389545 -549.16595366 329.74326364 -537.8125 306.9375 C-518.65248168 268.76216812 -494.95958299 232.99778884 -467.625 200.1875 C-467.1496582 199.61306152 -466.67431641 199.03862305 -466.18457031 198.44677734 C-465.72405273 197.89070801 -465.26353516 197.33463867 -464.7890625 196.76171875 C-464.39283691 196.28307373 -463.99661133 195.80442871 -463.58837891 195.3112793 C-453.67895632 183.54839831 -443.08641336 172.4803828 -432.19628906 161.62841797 C-430.3588424 159.79639005 -428.5268835 157.95899395 -426.6953125 156.12109375 C-420.84210692 150.26428498 -414.97217747 144.51436264 -408.625 139.1875 C-407.61494692 138.31097613 -406.60578517 137.43342375 -405.59765625 136.5546875 C-397.58548853 129.69326064 -389.32301242 123.21960238 -380.88720703 116.88769531 C-379.37739446 115.75297324 -377.87055484 114.6142848 -376.36669922 113.47167969 C-303.60527651 58.20233394 -215.91183882 24.97089043 -64.125 2.4375 C-63.39796875 2.37824341 -62.6709375 2.31898682 -61.921875 2.25793457 C-41.29656631 0.61012107 -20.68776257 -0.01412388 0 0 Z " fill="#6240EE" transform="translate(915.625,71.8125)"/>
<path d="M0 0 C1.84605331 -0.00021904 1.84605331 -0.00021904 3.72940063 -0.0004425 C7.06331951 0.00012965 10.39717439 0.0051014 13.73108196 0.01213145 C17.23040766 0.01843604 20.72973445 0.01897436 24.22906494 0.02015686 C30.83729285 0.02324941 37.44550397 0.03143448 44.05372453 0.04150635 C51.58469152 0.05273239 59.11565937 0.05819421 66.64663267 0.06320179 C82.12152782 0.07361911 97.59640626 0.09117784 113.07128906 0.11352539 C113.07128906 0.44352539 113.07128906 0.77352539 113.07128906 1.11352539 C112.31323975 1.20851318 111.55519043 1.30350098 110.77416992 1.40136719 C53.76518607 8.64408285 4.69009693 27.03361376 -38.92871094 65.11352539 C-39.80011719 65.86118164 -40.67152344 66.60883789 -41.56933594 67.37915039 C-53.66207055 77.95078631 -63.51827478 90.1655895 -72.92871094 103.11352539 C-73.43015625 103.80124023 -73.93160156 104.48895508 -74.44824219 105.19750977 C-112.78475362 158.45390361 -127.13519159 226.89622176 -116.71435547 291.35986328 C-108.65597505 337.19450074 -88.65492716 380.56116615 -56.99121094 414.86352539 C-55.17813999 416.84142097 -53.4583208 418.86549356 -51.74121094 420.92602539 C-10.35193072 468.09275662 52.22151609 490.78288131 113.07128906 497.11352539 C113.07128906 497.44352539 113.07128906 497.77352539 113.07128906 498.11352539 C97.00562417 498.16053784 80.93998206 498.19565592 64.87426472 498.21714973 C57.41232802 498.22740115 49.9504344 498.24134191 42.48852539 498.2644043 C35.97411652 498.28452842 29.4597389 498.2972862 22.9452998 498.30170238 C19.50559595 498.30427808 16.06598136 498.31019873 12.62630653 498.3249855 C-7.25446755 498.40086103 -26.91121603 498.01425158 -46.42871094 493.86352539 C-47.47003174 493.64664062 -48.51135254 493.42975586 -49.58422852 493.20629883 C-88.14502971 484.95354192 -124.56051752 468.45440161 -154.92871094 443.11352539 C-155.49895996 442.64479004 -156.06920898 442.17605469 -156.65673828 441.69311523 C-169.65053473 430.99468434 -181.60104201 419.43527082 -191.92871094 406.11352539 C-193.09080078 404.67686523 -193.09080078 404.67686523 -194.27636719 403.21118164 C-225.48128654 363.99485668 -245.86722303 312.75614112 -246.13183594 262.32055664 C-246.13885025 261.41997025 -246.14586456 260.51938385 -246.15309143 259.59150696 C-246.17048903 256.70296158 -246.1769432 253.81462123 -246.17871094 250.92602539 C-246.17972305 249.44546661 -246.17972305 249.44546661 -246.18075562 247.93499756 C-246.16502586 233.46626988 -245.80882178 219.34011319 -242.92871094 205.11352539 C-242.65534912 203.73680664 -242.65534912 203.73680664 -242.37646484 202.33227539 C-241.06486026 195.88053957 -239.55713035 189.49202297 -237.92871094 183.11352539 C-237.74614746 182.38004883 -237.56358398 181.64657227 -237.37548828 180.89086914 C-228.08601665 144.17901451 -207.93428521 109.21476051 -182.21386719 81.58618164 C-180.29967211 79.5149244 -178.48283483 77.40437838 -176.67871094 75.23852539 C-136.98748852 29.9166877 -75.10234396 5.08379616 -16.18837738 0.31823921 C-10.79140435 -0.0207019 -5.40586301 -0.0171231 0 0 Z " fill="#623DE8" transform="translate(909.9287109375,1429.886474609375)"/>
<path d="M0 0 C15.6396398 -0.25882093 31.27868635 -0.4518317 46.91994572 -0.56993389 C54.18524004 -0.6262689 61.44919176 -0.70283324 68.71362305 -0.82983398 C75.05739626 -0.94068487 81.40019611 -1.01071923 87.74491113 -1.03497344 C91.09479636 -1.04911996 94.43972741 -1.08755975 97.78911018 -1.16303062 C115.44822445 -1.54461718 128.24232594 0.7623989 143.62020111 9.65080166 C147.18719159 11.67306399 150.87722623 13.40882173 154.5859375 15.15234375 C155.88545934 15.78135536 157.18424209 16.41189864 158.48193359 17.04467773 C169.43329077 22.36954277 180.39150312 27.67917139 191.375 32.9375 C202.19959455 38.12066744 212.99468835 43.3635382 223.78747559 48.61248779 C233.055482 53.11934831 242.32993221 57.61162209 251.625 62.0625 C261.18061109 66.63813724 270.71847341 71.24947469 280.25 75.875 C290.74532307 80.96806545 301.2435613 86.05489941 311.75 91.125 C312.93335938 91.69605469 314.11671875 92.26710938 315.3359375 92.85546875 C318.890518 94.5705344 322.44523156 96.28532393 326 98 C340.55026877 105.0184593 355.09696029 112.04392267 369.63067627 119.09658813 C382.00702938 125.10227202 394.39505926 131.08248826 406.80078125 137.02734375 C413.89235589 140.42589515 420.97757387 143.83761714 428.0625 147.25 C428.6669696 147.54111664 429.27143921 147.83223328 429.89422607 148.13217163 C433.26291765 149.75457297 436.63150873 151.37718281 440 153 C440 153.33 440 153.66 440 154 C424.15048219 154.47378797 408.30296834 154.82298891 392.44806767 155.03624344 C385.08067402 155.13803769 377.71779628 155.27644728 370.35327148 155.50878906 C335.37630234 156.59031113 306.29689161 155.73141307 275.74908447 136.31962585 C270.72840711 133.14697094 265.40889306 130.68247891 260 128.25 C258.2560265 127.4243348 256.51360335 126.59537899 254.7734375 125.76171875 C253.42523926 125.11855713 253.42523926 125.11855713 252.04980469 124.46240234 C245.56369169 121.35226651 239.09578077 118.20437566 232.625 115.0625 C222.92671267 110.3538317 213.22339367 105.65669035 203.5 101 C193.10206297 96.01997143 182.72702541 90.99362891 172.35546875 85.95898438 C163.4134243 81.61874159 154.46458436 77.29356409 145.5 73 C135.10207689 68.01994209 124.72702559 62.993629 114.35546875 57.95898438 C105.41342402 53.61874146 96.46456033 49.29361464 87.5 45 C77.90301327 40.40295208 68.32358672 35.77051025 58.75 31.125 C43.42648214 23.68963923 43.42648214 23.68963923 28.09631348 16.26800537 C26.32260386 15.41011627 24.54947302 14.55103085 22.77636719 13.69189453 C15.22249957 10.04148745 7.6285244 6.49157718 0 3 C0 2.01 0 1.02 0 0 Z " fill="#632DBF" transform="translate(345,483)"/>
</svg>
